<?xml version="1.0" standalone="no"?>
<!DOCTYPE svg PUBLIC "-//W3C//DTD SVG 20010904//EN"
 "http://www.w3.org/TR/2001/REC-SVG-20010904/DTD/svg10.dtd">
<svg version="1.0" xmlns="http://www.w3.org/2000/svg"
 width="1143.000000pt" height="1143.000000pt" viewBox="0 0 1143.000000 1143.000000"
 preserveAspectRatio="xMidYMid meet">
<metadata>
Created by potrace 1.11, written by Peter Selinger 2001-2013
</metadata>
<g transform="translate(0.000000,1143.000000) scale(0.100000,-0.100000)"
fill="#000000" stroke="none">
<path d="M300 6005 l0 -5415 5415 0 5415 0 0 5415 0 5415 -5415 0 -5415 0 0
-5415z m7566 3738 c-12 -53 -55 -369 -70 -508 -87 -792 -69 -1764 50 -2810 85
-752 265 -1736 400 -2188 137 -460 334 -798 561 -964 l65 -48 -79 -74 c-162
-155 -350 -275 -497 -320 -426 -131 -761 307 -1025 1340 -67 259 -124 529
-177 839 -20 113 -37 206 -39 208 -1 2 -101 -6 -221 -17 -608 -57 -917 -66
-1767 -51 -410 8 -702 9 -706 4 -17 -18 -210 -393 -286 -554 -213 -452 -329
-816 -355 -1112 -6 -76 -6 -134 1 -178 11 -70 54 -174 96 -228 14 -18 23 -35
21 -37 -3 -3 -256 -95 -469 -171 -131 -46 -224 -64 -333 -64 -119 0 -185 19
-241 71 -66 60 -80 108 -79 259 1 399 260 1027 770 1868 68 112 124 207 124
209 0 12 -580 -6 -689 -22 -219 -31 -413 -84 -570 -156 -46 -22 -86 -38 -88
-35 -6 5 47 146 80 211 147 294 415 471 797 526 91 14 250 16 590 10 l215 -4
159 234 c455 671 1039 1448 1837 2444 185 231 394 488 465 570 156 182 354
382 449 454 155 117 376 194 820 286 203 42 198 42 191 8z"/>
<path d="M6721 8566 c-36 -45 -212 -261 -391 -481 -833 -1020 -1189 -1532
-1583 -2276 l-56 -107 137 -8 c234 -14 1513 -11 1721 4 206 15 429 37 435 43
2 2 -11 126 -29 274 -119 965 -184 1913 -167 2440 2 83 3 159 1 171 -3 17 -16
5 -68 -60z"/>
</g>
</svg>
